HIERARCHY
ROOT root
{
	OFFSET	0	13.1	24.9
	CHANNELS 6  Xposition Yposition Zposition Xrotation Yrotation Zrotation
	JOINT spine_1
	{
		OFFSET	0	9.99999	0
		CHANNELS 3  Xrotation Yrotation Zrotation
		JOINT spine_2
		{
			OFFSET	0	112	-10
			CHANNELS 3  Xrotation Yrotation Zrotation
			JOINT spine_3
			{
				OFFSET	0	206.5	19.3
				CHANNELS 3  Xrotation Yrotation Zrotation
				JOINT spine_4
				{
					OFFSET	0	110.4	14.6
					CHANNELS 3  Xrotation Yrotation Zrotation
					JOINT neck_1
					{
						OFFSET	0	71.8	-50.3
						CHANNELS 3  Xrotation Yrotation Zrotation
						JOINT neck_2
						{
							OFFSET	0	86.2	-25.8
							CHANNELS 3  Xrotation Yrotation Zrotation
							JOINT head_ee
							{
								OFFSET	0	179.8	-8.7
								CHANNELS 3  Xrotation Yrotation Zrotation
								End Site
								{
									OFFSET	1	0	0
								}
							}
						}
					}
					JOINT left_clavicle
					{
						OFFSET	-43.2	22.4	-70.8
						CHANNELS 3  Xrotation Yrotation Zrotation
						JOINT left_shoulder
						{
							OFFSET	-93.9	-5.79999	48.7
							CHANNELS 3  Xrotation Yrotation Zrotation
							JOINT left_elbow
							{
								OFFSET	-291.4	-30.8	15.2
								CHANNELS 3  Xrotation Yrotation Zrotation
								JOINT left_lowarm_twist
								{
									OFFSET	-110.7	-3.89999	13.6
									CHANNELS 3  Xrotation Yrotation Zrotation
									JOINT left_hand
									{
										OFFSET	-110.7	-3.89999	13.6
										CHANNELS 3  Xrotation Yrotation Zrotation
										JOINT left_ee
										{
											OFFSET	-80.8	-5.10001	12.1
											CHANNELS 3  Xrotation Yrotation Zrotation
											End Site
											{
												OFFSET	1	0	0
											}
										}
									}
								}
							}
						}
					}
					JOINT right_clavicle
					{
						OFFSET	43.2	22.4	-70.8
						CHANNELS 3  Xrotation Yrotation Zrotation
						JOINT right_shoulder
						{
							OFFSET	93.9	-5.79999	48.7
							CHANNELS 3  Xrotation Yrotation Zrotation
							JOINT right_elbow
							{
								OFFSET	291.4	-30.8	15.2
								CHANNELS 3  Xrotation Yrotation Zrotation
								JOINT right_lowarm_twist
								{
									OFFSET	110.7	-3.89999	13.6
									CHANNELS 3  Xrotation Yrotation Zrotation
									JOINT right_hand
									{
										OFFSET	110.7	-3.89999	13.6
										CHANNELS 3  Xrotation Yrotation Zrotation
										JOINT right_ee
										{
											OFFSET	80.8	-5.10001	12.1
											CHANNELS 3  Xrotation Yrotation Zrotation
											End Site
											{
												OFFSET	1	0	0
											}
										}
									}
								}
							}
						}
					}
				}
			}
		}
	}
	JOINT left_hip
	{
		OFFSET	-82.8	-127.5	0.300001
		CHANNELS 3  Xrotation Yrotation Zrotation
		JOINT left_knee
		{
			OFFSET	-28.2	-396.7	2.2
			CHANNELS 3  Xrotation Yrotation Zrotation
			JOINT left_ankle
			{
				OFFSET	-11.7	-411.3	35.4
				CHANNELS 3  Xrotation Yrotation Zrotation
				JOINT left_toes
				{
					OFFSET	0	-60	-88.6
					CHANNELS 3  Xrotation Yrotation Zrotation
					JOINT left_foot_ee
					{
						OFFSET	-22.5	-16.5	-42.2
						CHANNELS 3  Xrotation Yrotation Zrotation
						End Site
						{
							OFFSET	1	0	0
						}
					}
				}
			}
		}
	}
	JOINT right_hip
	{
		OFFSET	82.8	-127.5	0.300001
		CHANNELS 3  Xrotation Yrotation Zrotation
		JOINT right_knee
		{
			OFFSET	28.2	-396.7	2.2
			CHANNELS 3  Xrotation Yrotation Zrotation
			JOINT right_ankle
			{
				OFFSET	11.7	-411.3	35.4
				CHANNELS 3  Xrotation Yrotation Zrotation
				JOINT right_toes
				{
					OFFSET	0	-60	-88.6
					CHANNELS 3  Xrotation Yrotation Zrotation
					JOINT right_foot_ee
					{
						OFFSET	22.5	-16.5	-42.2
						CHANNELS 3  Xrotation Yrotation Zrotation
						End Site
						{
							OFFSET	1	0	0
						}
					}
				}
			}
		}
	}
}
MOTION
Frames: 5
Frame Time: 0.02
3574.42 741.953 -1474.73 34.5520258771 77.4373384875 -34.0067148343 -2.72421 -0.120254 -0.894747 -2.72377 -0.0630774 -0.900585 -2.72223 0.169927 -0.886656 -2.72333 0.0277694 -0.902364 -11.1193 6.46563 1.28384 -11.1721 11.3803 2.9734 -0.0 0.0 -0.0 -1.05297 14.4062 -0.00624914 8.54604 -9.76007 78.2954 1.74861 -40.8959 0.652013 1.79694 0.0598382 -0.221698 0.121024 15.8784 7.2357 -0.0 0.0 -0.0 3.33273 14.9842 -5.30118 -8.70899 16.9852 -67.8143 0.606535 16.7235 -0.0891525 51.9798 1.11416 6.32105 0.811317 3.0513 -4.1665 0.0 0.0 0.0 -5.07181 39.9656 -7.79055 2.42656 -0.107505 -0.356798 12.9306 12.6393 -1.82536 1.23001 -0.0 -0.0 -0.0 0.0 -0.0 7.90157 25.6541 -10.9529 -26.1097 -0.173307 -3.9685 36.2931 6.70366 4.62463 -14.8207 0.0 0.0 0.0 0.0 0.0 
3571.61919779 744.461 -1473.44638948 30.5075550141 76.1582219451 -29.6692560226 -2.69374 -0.111843 -0.82635 -2.69336 -0.0590352 -0.831791 -2.69204 0.155763 -0.819207 -2.69297 0.0244342 -0.833525 -11.3724 6.45918 1.20125 -11.4298 11.4383 2.91688 -0.0 0.0 -0.0 -1.16747 14.3736 -0.196345 8.749 -10.065 78.6147 1.75287 -40.9648 0.654801 1.87819 0.0623794 -0.231766 0.200341 15.5309 7.59532 -0.0 0.0 -0.0 3.32868 14.463 -5.3382 -9.14949 16.7239 -67.5915 0.593879 16.3935 -0.0855455 52.1703 1.12853 6.34078 0.737617 3.05951 -3.6665 0.0 0.0 0.0 -5.31602 40.0451 -7.80489 2.38485 -0.105529 -0.350703 12.7319 12.6257 -1.79859 1.18223 -0.0 -0.0 -0.0 0.0 -0.0 7.86934 25.3018 -10.8878 -26.0393 -0.175279 -3.95788 36.1821 6.92905 4.61804 -15.1041 0.0 0.0 0.0 0.0 0.0 
3568.08273479 743.46 -1473.18775694 25.1845653853 73.9759330458 -23.9718965938 -2.61625 -0.0413535 -0.821996 -2.61587 0.0110343 -0.822962 -2.61563 0.220189 -0.793037 -2.6165 0.0921851 -0.817857 -10.3595 7.14397 2.42345 -10.3951 11.8477 4.17945 -0.0 0.0 -0.0 -0.285434 14.1263 1.20095 8.15665 -11.1434 76.4724 1.78354 -41.4573 0.675011 2.00248 0.0662385 -0.247172 0.66259 13.9756 9.91664 -0.0 0.0 -0.0 3.55554 16.2789 -5.66096 -10.0554 15.5747 -68.062 0.60106 16.5809 -0.0875836 53.262 1.21211 6.45288 0.65134 2.49879 -3.3194 0.0 0.0 0.0 -5.00782 40.0885 -8.11023 2.33754 -0.103293 -0.343788 13.6071 14.0753 -1.92085 0.974532 -0.0 -0.0 -0.0 0.0 -0.0 7.86833 25.1392 -11.091 -25.9064 -0.178969 -3.93782 36.5482 7.24847 4.65828 -15.5117 0.0 0.0 0.0 0.0 0.0 
3567.84923838 739.857 -1475.21075744 22.2799976986 72.5073663607 -21.0028822839 -2.58027 -0.0582855 -0.862856 -2.57985 -0.00326366 -0.864816 -2.57936 0.216488 -0.83729 -2.58033 0.0815424 -0.86097 -10.2546 6.98699 4.18867 -10.2454 10.3562 5.83803 -0.0 0.0 -0.0 0.0356042 13.8917 1.69528 7.49775 -13.9245 75.0024 1.8028 -41.7626 0.687795 3.51437 0.110499 -0.435217 1.4128 11.3904 13.8219 -0.0 0.0 -0.0 3.8781 17.3664 -6.25408 -11.0516 15.5514 -68.0937 0.611868 16.8623 -0.0906933 54.3579 1.29816 6.56381 0.469924 2.02054 -2.29962 0.0 0.0 0.0 -4.79885 40.0616 -8.07786 2.5327 -0.112552 -0.3723 16.2184 14.9672 -2.27089 0.641908 -0.0 -0.0 -0.0 0.0 -0.0 7.83455 25.8389 -11.4457 -24.8933 -0.205556 -3.78462 36.7877 7.59899 4.68719 -16.6613 0.0 0.0 0.0 0.0 0.0 
3567.86308893 739.857 -1475.37261436 20.7010330498 71.1926727655 -19.3413622823 -2.58027 -0.0582855 -0.862856 -2.57985 -0.00326366 -0.864816 -2.57936 0.216488 -0.83729 -2.58033 0.0815424 -0.86097 -10.2546 6.98699 4.18867 -10.2454 10.3562 5.83803 -0.0 0.0 -0.0 0.0356042 13.8917 1.69528 7.49775 -13.9245 75.0024 1.8028 -41.7626 0.687795 3.51437 0.110499 -0.435217 1.4128 11.3904 13.8219 -0.0 0.0 -0.0 3.8781 17.3664 -6.25408 -11.0516 15.5514 -68.0937 0.611868 16.8623 -0.0906933 54.3579 1.29816 6.56381 0.469924 2.02054 -2.29962 0.0 0.0 0.0 -4.79885 40.0616 -8.07786 2.5327 -0.112552 -0.3723 16.2184 14.9672 -2.27089 0.641908 -0.0 -0.0 -0.0 0.0 -0.0 7.83455 25.8389 -11.4457 -24.8933 -0.205556 -3.78462 36.7877 7.59899 4.68719 -16.6613 0.0 0.0 0.0 0.0 0.0 
